<?xml version="1.0" encoding="UTF-8" standalone="no"?>
<!-- Generator: Adobe Illustrator 19.0.0, SVG Export Plug-In . SVG Version: 6.00 Build 0)  -->

<svg
   xmlns:dc="http://purl.org/dc/elements/1.1/"
   xmlns:cc="http://creativecommons.org/ns#"
   xmlns:rdf="http://www.w3.org/1999/02/22-rdf-syntax-ns#"
   xmlns:svg="http://www.w3.org/2000/svg"
   xmlns="http://www.w3.org/2000/svg"
   xmlns:sodipodi="http://sodipodi.sourceforge.net/DTD/sodipodi-0.dtd"
   xmlns:inkscape="http://www.inkscape.org/namespaces/inkscape"
   version="1.1"
   id="Layer_1"
   x="0px"
   y="0px"
   viewBox="0 0 512.02 512.02"
   style="enable-background:new 0 0 512.02 512.02;"
   xml:space="preserve"
   sodipodi:docname="delBttn.svg"
   inkscape:version="0.92.3 (2405546, 2018-03-11)"><metadata
   id="metadata899"><rdf:RDF><cc:Work
       rdf:about=""><dc:format>image/svg+xml</dc:format><dc:type
         rdf:resource="http://purl.org/dc/dcmitype/StillImage" /></cc:Work></rdf:RDF></metadata><defs
   id="defs897" /><sodipodi:namedview
   pagecolor="#ffffff"
   bordercolor="#666666"
   borderopacity="1"
   objecttolerance="10"
   gridtolerance="10"
   guidetolerance="10"
   inkscape:pageopacity="0"
   inkscape:pageshadow="2"
   inkscape:window-width="2256"
   inkscape:window-height="1410"
   id="namedview895"
   showgrid="false"
   inkscape:zoom="1.5633078"
   inkscape:cx="22.449716"
   inkscape:cy="193.40867"
   inkscape:window-x="-11"
   inkscape:window-y="-11"
   inkscape:window-maximized="1"
   inkscape:current-layer="Layer_1" />
<g
   id="g862"
   style="fill:#1d2d44;fill-opacity:1">
	<path
   style="fill:#1d2d44;fill-opacity:1"
   d="M468.214,512.02c-11.208,0-22.408-4.28-30.96-12.832L12.838,74.756   c-17.104-17.104-17.104-44.84,0-61.928c17.104-17.104,44.816-17.104,61.928,0L499.182,437.26c17.104,17.104,17.104,44.84,0,61.928   C490.622,507.74,479.414,512.02,468.214,512.02z"
   id="path858" />
	<path
   style="fill:#1d2d44;fill-opacity:1"
   d="M43.798,512.02c-11.208,0-22.408-4.28-30.96-12.832c-17.104-17.088-17.104-44.816,0-61.928   L437.254,12.836c17.104-17.104,44.816-17.104,61.928,0c17.104,17.088,17.104,44.816,0,61.928L74.758,499.188   C66.206,507.74,55.006,512.02,43.798,512.02z"
   id="path860" />
</g>
<g
   id="g864">
</g>
<g
   id="g866">
</g>
<g
   id="g868">
</g>
<g
   id="g870">
</g>
<g
   id="g872">
</g>
<g
   id="g874">
</g>
<g
   id="g876">
</g>
<g
   id="g878">
</g>
<g
   id="g880">
</g>
<g
   id="g882">
</g>
<g
   id="g884">
</g>
<g
   id="g886">
</g>
<g
   id="g888">
</g>
<g
   id="g890">
</g>
<g
   id="g892">
</g>
</svg>