<?xml version="1.0" encoding="UTF-8" standalone="no"?>
<svg
   xmlns:dc="http://purl.org/dc/elements/1.1/"
   xmlns:cc="http://creativecommons.org/ns#"
   xmlns:rdf="http://www.w3.org/1999/02/22-rdf-syntax-ns#"
   xmlns:svg="http://www.w3.org/2000/svg"
   xmlns="http://www.w3.org/2000/svg"
   xmlns:sodipodi="http://sodipodi.sourceforge.net/DTD/sodipodi-0.dtd"
   xmlns:inkscape="http://www.inkscape.org/namespaces/inkscape"
   height="512pt"
   viewBox="0 0 512.00047 512"
   width="512pt"
   version="1.1"
   id="svg863"
   sodipodi:docname="reload.svg"
   inkscape:version="0.92.3 (2405546, 2018-03-11)">
  <metadata
     id="metadata869">
    <rdf:RDF>
      <cc:Work
         rdf:about="">
        <dc:format>image/svg+xml</dc:format>
        <dc:type
           rdf:resource="http://purl.org/dc/dcmitype/StillImage" />
      </cc:Work>
    </rdf:RDF>
  </metadata>
  <defs
     id="defs867" />
  <sodipodi:namedview
     pagecolor="#ffffff"
     bordercolor="#666666"
     borderopacity="1"
     objecttolerance="10"
     gridtolerance="10"
     guidetolerance="10"
     inkscape:pageopacity="0"
     inkscape:pageshadow="2"
     inkscape:window-width="2256"
     inkscape:window-height="1410"
     id="namedview865"
     showgrid="false"
     inkscape:zoom="2.3450548"
     inkscape:cx="534.56847"
     inkscape:cy="509.89215"
     inkscape:window-x="-11"
     inkscape:window-y="-11"
     inkscape:window-maximized="1"
     inkscape:current-layer="svg863" />
  <g
     id="g879">
    <path
       id="path843"
       d="m7.398438 316.980469c-33.625-137.078125 50.542968-275.957031 187.621093-309.582031 137.078125-33.621094 275.957031 50.542968 309.582031 187.621093 33.621094 137.078125-50.542968 275.957031-187.621093 309.582031-137.082031 33.621094-275.957031-50.542968-309.582031-187.621093zm0 0"
       fill="#2633d8" />
    <path
       id="path847"
       d="m450.515625 89.675781c-60.886719-70.972656-158.636719-106.035156-255.496094-82.277343-137.078125 33.625-221.246093 172.503906-187.621093 309.582031 9.824218 40.042969 28.636718 75.558593 53.753906 104.957031.027344.003906.054687.007812.082031.015625 19.660156.753906 85.078125 8.304687 142.3125-46.550781 88.027344-84.363282 16.714844-154.285156 105.230469-239.117188 56.660156-54.300781 121.328125-47.453125 141.695312-46.578125.015625-.007812.03125-.019531.042969-.03125zm0 0"
       fill="#00ceff" />
    <path
       id="path849"
       d="m504.601562 195.019531c-33.625-137.078125-172.503906-221.242187-309.582031-187.621093-86.652343 21.257812-152.140625 84.578124-180.121093 162.90625 9.175781 17.402343 35.347656 77.828124 111.46875 99.972656 117.074218 34.050781 141.972656-62.667969 259.699218-28.425782 75.355469 21.917969 101.757813 81.347657 111.183594 99.425782 16.152344-45.476563 19.679688-95.984375 7.351562-146.257813zm0 0"
       fill="#00e162" />
    <path
       id="path851"
       d="m385.632812 241.722656c-58.53125-17.023437-94.023437-1.359375-129.59375 14.28125 31.320313 22.976563 62.652344 46.050782 77.25 105.5625 18.726563 76.359375-19.710937 128.996094-30.578124 146.097656 4.757812-.886718 9.515624-1.898437 14.269531-3.0625 86.652343-21.253906 152.144531-84.574218 180.121093-162.90625-9.175781-17.402343-35.347656-77.828124-111.46875-99.972656zm0 0"
       fill="#ff3939" />
    <path
       id="path853"
       d="m385.632812 241.722656c-58.53125-17.023437-94.023437-1.359375-129.59375 14.28125 31.320313 22.976563 62.652344 46.050782 77.25 105.5625 14.4375 58.859375-5.09375 103.621094-19.78125 128.878906l3.472657 14.15625c86.652343-21.253906 152.144531-84.574218 180.121093-162.90625-9.175781-17.402343-35.347656-77.828124-111.46875-99.972656zm0 0"
       fill="#b00000" />
    <path
       id="path855"
       d="m209.722656 4.261719c-.011718 0-.019531.003906-.03125.003906l.007813.03125c-10.429688 16.582031-49.785157 69.496094-30.878907 146.578125 29.046876 118.414062 125.257813 91.613281 154.464844 210.691406 18.730469 76.359375-19.707031 128.996094-30.574218 146.09375 4.753906-.882812 9.511718-1.894531 14.269531-3.058594 137.078125-33.625 221.242187-172.503906 187.621093-309.582031-32.421874-132.175781-162.707031-215.140625-294.878906-190.757812zm0 0"
       fill="#fd0" />
    <path
       style="fill:#ff561f;fill-opacity:1"
       id="path859"
       d="m333.289062 361.566406c18.726563 76.359375-19.710937 128.996094-30.578124 146.09375 4.757812-.882812 9.515624-1.894531 14.269531-3.058594 137.078125-33.625 221.246093-172.503906 187.621093-309.582031-9.824218-40.050781-28.644531-75.570312-53.769531-104.96875-19.582031-.742187-85.082031-8.367187-142.378906 46.546875-44.019531 42.183594-48.191406 80.757813-52.433594 119.394532 31.324219 22.980468 62.667969 46.054687 77.269531 105.574218zm0 0"
       fill="#f53c00" />
    <path
       style="fill:#f10000;fill-opacity:1"
       id="path861"
       d="m385.632812 241.722656c-58.53125-17.023437-94.023437-1.359375-129.59375 14.28125 31.320313 22.976563 62.652344 46.050782 77.25 105.5625 18.726563 76.359375-19.710937 128.996094-30.578124 146.097656 4.757812-.886718 9.515624-1.898437 14.269531-3.0625 86.652343-21.253906 152.144531-84.574218 180.121093-162.90625-9.175781-17.402343-35.347656-77.828124-111.46875-99.972656zm0 0"
       fill="#b00000" />
  </g>
</svg>
