<?xml version="1.0" encoding="UTF-8" standalone="no"?>
<!-- Generator: Adobe Illustrator 19.0.0, SVG Export Plug-In . SVG Version: 6.00 Build 0)  -->

<svg
   xmlns:dc="http://purl.org/dc/elements/1.1/"
   xmlns:cc="http://creativecommons.org/ns#"
   xmlns:rdf="http://www.w3.org/1999/02/22-rdf-syntax-ns#"
   xmlns:svg="http://www.w3.org/2000/svg"
   xmlns="http://www.w3.org/2000/svg"
   xmlns:sodipodi="http://sodipodi.sourceforge.net/DTD/sodipodi-0.dtd"
   xmlns:inkscape="http://www.inkscape.org/namespaces/inkscape"
   version="1.1"
   id="Layer_1"
   x="0px"
   y="0px"
   viewBox="0 0 511.99979 482.48212"
   xml:space="preserve"
   sodipodi:docname="warning.svg"
   inkscape:version="0.92.3 (2405546, 2018-03-11)"
   width="511.99979"
   height="482.48212"><metadata
   id="metadata1598"><rdf:RDF><cc:Work
       rdf:about=""><dc:format>image/svg+xml</dc:format><dc:type
         rdf:resource="http://purl.org/dc/dcmitype/StillImage" /><dc:title></dc:title></cc:Work></rdf:RDF></metadata><defs
   id="defs1596" /><sodipodi:namedview
   pagecolor="#ffffff"
   bordercolor="#666666"
   borderopacity="1"
   objecttolerance="10"
   gridtolerance="10"
   guidetolerance="10"
   inkscape:pageopacity="0"
   inkscape:pageshadow="2"
   inkscape:window-width="2256"
   inkscape:window-height="1410"
   id="namedview1594"
   showgrid="false"
   inkscape:zoom="2.0742187"
   inkscape:cx="256.9641"
   inkscape:cy="241.241"
   inkscape:window-x="-11"
   inkscape:window-y="-11"
   inkscape:window-maximized="1"
   inkscape:current-layer="Layer_1"
   fit-margin-top="0"
   fit-margin-left="0"
   fit-margin-right="0"
   fit-margin-bottom="0" />
<rect
   style="opacity:1;fill:#1d2d44;fill-opacity:1;stroke:none;stroke-width:0;stroke-linecap:round;stroke-linejoin:round;stroke-miterlimit:4;stroke-dasharray:none;stroke-opacity:1;paint-order:markers fill stroke"
   id="rect2143"
   width="142.70433"
   height="355.7966"
   x="179.82661"
   y="87.44828"
   ry="0.165098" /><g
   id="g1561"
   style="fill:#ffdd00;fill-opacity:1"
   transform="translate(-1.1690943e-4,-14.758871)">
	<g
   id="g1559"
   style="fill:#ffdd00;fill-opacity:1">
		<path
   d="M 501.362,383.95 320.497,51.474 C 291.438,2.553 220.601,2.488 191.503,51.474 L 10.647,383.95 c -29.706,49.989 6.259,113.291 64.482,113.291 h 361.736 c 58.174,0 94.203,-63.251 64.497,-113.291 z M 256,437.241 c -16.538,0 -30,-13.462 -30,-30 0,-16.538 13.462,-30 30,-30 16.538,0 30,13.462 30,30 0,16.538 -13.462,30 -30,30 z m 30,-120 c 0,16.538 -13.462,30 -30,30 -16.538,0 -30,-13.462 -30,-30 v -150 c 0,-16.538 13.462,-30 30,-30 16.538,0 30,13.462 30,30 z"
   id="path1557"
   style="fill:#ffdd00;fill-opacity:1"
   inkscape:connector-curvature="0" />
	</g>
</g>
<g
   id="g1563"
   transform="translate(-1.1690943e-4,-14.758871)">
</g>
<g
   id="g1565"
   transform="translate(-1.1690943e-4,-14.758871)">
</g>
<g
   id="g1567"
   transform="translate(-1.1690943e-4,-14.758871)">
</g>
<g
   id="g1569"
   transform="translate(-1.1690943e-4,-14.758871)">
</g>
<g
   id="g1571"
   transform="translate(-1.1690943e-4,-14.758871)">
</g>
<g
   id="g1573"
   transform="translate(-1.1690943e-4,-14.758871)">
</g>
<g
   id="g1575"
   transform="translate(-1.1690943e-4,-14.758871)">
</g>
<g
   id="g1577"
   transform="translate(-1.1690943e-4,-14.758871)">
</g>
<g
   id="g1579"
   transform="translate(-1.1690943e-4,-14.758871)">
</g>
<g
   id="g1581"
   transform="translate(-1.1690943e-4,-14.758871)">
</g>
<g
   id="g1583"
   transform="translate(-1.1690943e-4,-14.758871)">
</g>
<g
   id="g1585"
   transform="translate(-1.1690943e-4,-14.758871)">
</g>
<g
   id="g1587"
   transform="translate(-1.1690943e-4,-14.758871)">
</g>
<g
   id="g1589"
   transform="translate(-1.1690943e-4,-14.758871)">
</g>
<g
   id="g1591"
   transform="translate(-1.1690943e-4,-14.758871)">
</g>
</svg>